# Blender 3.4.0
# www.blender.org
mtllib flask.mtl
o Cylinder
v 0.281184 0.007474 -0.281184
v 0.000000 0.007474 -0.397654
v 0.397654 0.007474 0.000000
v 0.281184 0.007474 0.281184
v 0.000000 0.007474 0.397654
v -0.281184 0.007474 0.281184
v -0.397654 0.007474 -0.000000
v -0.281184 0.007474 -0.281184
v 0.400098 0.298997 -0.400098
v 0.000000 0.298997 -0.565824
v 0.565824 0.298997 0.000000
v 0.400098 0.298997 0.400098
v 0.000000 0.298997 0.565824
v -0.400098 0.298997 0.400098
v -0.565824 0.298997 -0.000000
v -0.400098 0.298997 -0.400098
v 0.249943 0.494114 -0.249943
v 0.000000 0.494114 -0.353473
v 0.353473 0.494114 0.000000
v 0.249943 0.494114 0.249943
v 0.000000 0.494114 0.353473
v -0.249943 0.494114 0.249943
v -0.353472 0.494114 -0.000000
v -0.249943 0.494114 -0.249943
v 0.000000 0.385315 -0.301737
v 0.000000 0.988788 -0.389045
v 0.213360 0.385315 -0.213360
v 0.275097 0.988788 -0.275096
v 0.301737 0.385315 0.000000
v 0.389046 0.988788 0.000000
v 0.213360 0.385315 0.213361
v 0.275097 0.988788 0.275097
v 0.000000 0.385315 0.301737
v 0.000000 0.988788 0.389046
v -0.213360 0.385315 0.213361
v -0.275097 0.988788 0.275097
v -0.301737 0.385315 0.000000
v -0.389045 0.988788 0.000000
v -0.213360 0.385315 -0.213360
v -0.275097 0.988788 -0.275096
vn -0.8153 -0.4703 -0.3377
vn -0.6515 0.7090 0.2699
vn -0.3377 -0.4703 0.8153
vn 0.8153 -0.4703 0.3377
vn 0.3377 -0.4703 -0.8153
vn -0.3377 -0.4703 -0.8153
vn -0.8153 -0.4703 0.3377
vn 0.3377 -0.4703 0.8153
vn 0.8153 -0.4703 -0.3377
vn -0.0000 1.0000 -0.0000
vn 0.2699 0.7090 0.6515
vn 0.6515 0.7090 -0.2699
vn -0.6515 0.7090 -0.2699
vn -0.2699 0.7090 0.6515
vn 0.6515 0.7090 0.2699
vn 0.2699 0.7090 -0.6515
vn -0.2699 0.7090 -0.6515
vn 0.3793 -0.1325 -0.9157
vn 0.9157 -0.1325 -0.3793
vn 0.9157 -0.1325 0.3793
vn 0.3793 -0.1325 0.9157
vn -0.3793 -0.1325 0.9157
vn -0.9157 -0.1325 0.3793
vn -0.9157 -0.1325 -0.3793
vn -0.3793 -0.1325 -0.9157
vn -0.0000 -1.0000 -0.0000
s 0
usemtl Glass
f 8//1 7//1 15//1 16//1
f 15//2 14//2 22//2 23//2
f 6//3 5//3 13//3 14//3
f 4//4 3//4 11//4 12//4
f 1//5 2//5 10//5 9//5
f 2//6 8//6 16//6 10//6
f 7//7 6//7 14//7 15//7
f 5//8 4//8 12//8 13//8
f 3//9 1//9 9//9 11//9
f 17//10 18//10 24//10 23//10 22//10 21//10 20//10 19//10
f 13//11 12//11 20//11 21//11
f 11//12 9//12 17//12 19//12
f 16//13 15//13 23//13 24//13
f 14//14 13//14 21//14 22//14
f 12//15 11//15 19//15 20//15
f 9//16 10//16 18//16 17//16
f 10//17 16//17 24//17 18//17
usemtl Cork
f 25//18 26//18 28//18 27//18
f 27//19 28//19 30//19 29//19
f 29//20 30//20 32//20 31//20
f 31//21 32//21 34//21 33//21
f 33//22 34//22 36//22 35//22
f 35//23 36//23 38//23 37//23
f 28//10 26//10 40//10 38//10 36//10 34//10 32//10 30//10
f 37//24 38//24 40//24 39//24
f 39//25 40//25 26//25 25//25
f 25//26 27//26 29//26 31//26 33//26 35//26 37//26 39//26
